<?xml version="1.0" encoding="UTF-8" standalone="no"?>
<!DOCTYPE svg PUBLIC "-//W3C//DTD SVG 1.1//EN"
 "http://www.w3.org/Graphics/SVG/1.1/DTD/svg11.dtd">
<!-- Generated by graphviz version 2.40.1 (20161225.0304)
 -->
<!-- Title: G Pages: 1 -->
<svg width="180pt" height="196pt"
 viewBox="0.00 0.00 179.98 195.98" xmlns="http://www.w3.org/2000/svg" xmlns:xlink="http://www.w3.org/1999/xlink">
<g id="graph0" class="graph" transform="scale(1 1) rotate(0) translate(7.992 187.992)">
<title>G</title>
<polygon fill="#ffffff" stroke="transparent" points="-7.992,7.992 -7.992,-187.992 171.992,-187.992 171.992,7.992 -7.992,7.992"/>
<!-- alpha -->
<g id="node1" class="node">
<title>alpha</title>
<polygon fill="none" stroke="#000000" points="54,-108 0,-108 0,-72 54,-72 54,-108"/>
<text text-anchor="middle" x="27" y="-85.8" font-family="Arial" font-size="14.00" fill="#000000">alpha</text>
</g>
<!-- i18n -->
<g id="node2" class="node">
<title>i18n</title>
<ellipse fill="#efefef" stroke="#000000" cx="82" cy="-18" rx="29.0701" ry="18"/>
<text text-anchor="middle" x="82" y="-13.8" font-family="Arial" font-size="14.00" fill="#000000">i18n</text>
</g>
<!-- alpha&#45;&gt;i18n -->
<g id="edge1" class="edge">
<title>alpha&#45;&gt;i18n</title>
<path fill="none" stroke="#757575" d="M40.8788,-71.8314C47.672,-62.9385 55.9488,-52.1034 63.2911,-42.4916"/>
<polygon fill="#757575" stroke="#757575" points="66.1531,-44.5107 69.4422,-34.4393 60.5904,-40.2614 66.1531,-44.5107"/>
</g>
<!-- beta -->
<g id="node3" class="node">
<title>beta</title>
<polygon fill="none" stroke="#000000" points="164,-108 110,-108 110,-72 164,-72 164,-108"/>
<text text-anchor="middle" x="137" y="-85.8" font-family="Arial" font-size="14.00" fill="#000000">beta</text>
</g>
<!-- beta&#45;&gt;i18n -->
<g id="edge2" class="edge">
<title>beta&#45;&gt;i18n</title>
<path fill="none" stroke="#757575" d="M123.1212,-71.8314C116.328,-62.9385 108.0512,-52.1034 100.7089,-42.4916"/>
<polygon fill="#757575" stroke="#757575" points="103.4096,-40.2614 94.5578,-34.4393 97.8469,-44.5107 103.4096,-40.2614"/>
</g>
<!-- home -->
<g id="node4" class="node">
<title>home</title>
<polygon fill="none" stroke="#000000" points="109,-180 55,-180 55,-144 109,-144 109,-180"/>
<text text-anchor="middle" x="82" y="-157.8" font-family="Arial" font-size="14.00" fill="#000000">home</text>
</g>
<!-- home&#45;&gt;alpha -->
<g id="edge4" class="edge">
<title>home&#45;&gt;alpha</title>
<path fill="none" stroke="#757575" stroke-dasharray="1,5" d="M68.1212,-143.8314C61.7864,-135.5386 54.1616,-125.557 47.2074,-116.4533"/>
<polygon fill="#757575" stroke="#757575" points="49.9175,-114.2353 41.0657,-108.4133 44.3548,-118.4847 49.9175,-114.2353"/>
</g>
<!-- home&#45;&gt;i18n -->
<g id="edge3" class="edge">
<title>home&#45;&gt;i18n</title>
<path fill="none" stroke="#757575" d="M82,-143.7623C82,-119.201 82,-75.2474 82,-46.3541"/>
<polygon fill="#757575" stroke="#757575" points="85.5001,-46.0896 82,-36.0896 78.5001,-46.0897 85.5001,-46.0896"/>
</g>
<!-- home&#45;&gt;beta -->
<g id="edge5" class="edge">
<title>home&#45;&gt;beta</title>
<path fill="none" stroke="#757575" stroke-dasharray="1,5" d="M95.8788,-143.8314C102.2136,-135.5386 109.8384,-125.557 116.7926,-116.4533"/>
<polygon fill="#757575" stroke="#757575" points="119.6452,-118.4847 122.9343,-108.4133 114.0825,-114.2353 119.6452,-118.4847"/>
</g>
</g>
</svg>
